<svg xmlns="http://www.w3.org/2000/svg" width="24" height="24" viewBox="0 0 24 24"><g fill="none" fill-rule="evenodd" stroke="#4A4A4A"><path d="M6.281 15.092l.178.328-2.227 2.226a.5.5 0 0 0 0 .708l1.414 1.414a.5.5 0 0 0 .708 0L8.58 17.54l.328.178c.392.213.806.384 1.235.512l.357.106V21a.5.5 0 0 0 .5.5h2a.5.5 0 0 0 .5-.5v-2.663l.357-.106c.43-.128.843-.3 1.235-.512l.328-.178 2.226 2.227a.5.5 0 0 0 .708 0l1.414-1.414a.5.5 0 0 0 0-.708L17.54 15.42l.178-.328c.213-.392.384-.806.512-1.235l.106-.357H21a.5.5 0 0 0 .5-.5v-2a.5.5 0 0 0-.5-.5h-2.663l-.106-.357a6.457 6.457 0 0 0-.512-1.235l-.178-.328 2.227-2.226a.5.5 0 0 0 0-.708l-1.414-1.414a.5.5 0 0 0-.708 0L15.42 6.46l-.328-.178a6.457 6.457 0 0 0-1.235-.512l-.357-.106V3a.5.5 0 0 0-.5-.5h-2a.5.5 0 0 0-.5.5v2.663l-.357.106c-.43.128-.843.3-1.235.512l-.328.178-2.226-2.227a.5.5 0 0 0-.708 0L4.232 5.646a.5.5 0 0 0 0 .708L6.46 8.58l-.178.328a6.457 6.457 0 0 0-.512 1.235l-.106.357H3a.5.5 0 0 0-.5.5v2a.5.5 0 0 0 .5.5H5.663l.106.357c.128.43.3.843.512 1.235z"/><circle cx="12.212" cy="11.788" r="3.191"/></g></svg>